<svg viewBox="0 0 480 480" xmlns="http://www.w3.org/2000/svg">
  <path
    d="m160 264v-8c4.417969 0 8-3.582031 8-8 0-35.347656-28.652344-64-64-64s-64 28.652344-64 64c0 4.417969 3.582031 8 8 8v8c0 30.929688 25.070312 56 56 56s56-25.070312 56-56zm-56-64c23.414062.03125 43.402344 16.917969 47.335938 40h-44l-21.65625-21.65625c-1.960938-1.960938-4.796876-2.765625-7.496094-2.128906-2.699219.636718-4.875 2.625-5.75 5.257812l-6.203125 18.527344h-9.597657c3.9375-23.09375 23.941407-39.984375 47.367188-40zm0 104c-22.082031-.027344-39.972656-17.917969-40-40v-8h8c3.445312 0 6.503906-2.203125 7.59375-5.472656l3.902344-11.710938 14.847656 14.839844c1.5 1.5 3.535156 2.34375 5.65625 2.34375h40v8c-.027344 22.082031-17.917969 39.972656-40 40zm0 0"/>
  <path
    d="m120 320h-32c-48.578125.058594-87.9414062 39.421875-88 88v64c0 4.417969 3.582031 8 8 8h192c4.417969 0 8-3.582031 8-8v-64c-.058594-48.578125-39.421875-87.941406-88-88zm0 16c2.878906.015625 5.753906.203125 8.609375.566406l-24.609375 33.832032-24.609375-33.832032c2.855469-.363281 5.730469-.550781 8.609375-.566406zm-104 72c.050781-29.941406 18.609375-56.730469 46.625-67.296875l33.375 45.898437v77.398438h-48v-72h-16v72h-16zm176 56h-16v-72h-16v72h-48v-77.398438l33.375-45.898437c28.015625 10.566406 46.574219 37.355469 46.625 67.296875zm0 0"/>
  <path d="m136 368h16v16h-16zm0 0"/>
  <path
    d="m432 80v-8c4.417969 0 8-3.582031 8-8 0-35.347656-28.652344-64-64-64s-64 28.652344-64 64c0 4.417969 3.582031 8 8 8v8c0 30.929688 25.070312 56 56 56s56-25.070312 56-56zm-56-64c23.414062.03125 43.402344 16.917969 47.335938 40h-44l-21.679688-21.65625c-1.960938-1.957031-4.796875-2.761719-7.492188-2.125-2.695312.636719-4.871093 2.625-5.75 5.253906l-6.183593 18.527344h-9.597657c3.9375-23.09375 23.941407-39.984375 47.367188-40zm0 104c-22.082031-.027344-39.972656-17.917969-40-40v-8h8c3.441406-.003906 6.496094-2.207031 7.585938-5.472656l3.917968-11.710938 14.839844 14.839844c1.5 1.5 3.535156 2.34375 5.65625 2.34375h40v8c-.027344 22.082031-17.917969 39.972656-40 40zm0 0"/>
  <path
    d="m392 136h-32c-48.578125.058594-87.941406 39.421875-88 88v64c0 4.417969 3.582031 8 8 8h192c4.417969 0 8-3.582031 8-8v-64c-.058594-48.578125-39.421875-87.941406-88-88zm0 16c2.878906.015625 5.753906.203125 8.609375.566406l-24.609375 33.832032-24.609375-33.832032c2.855469-.363281 5.730469-.550781 8.609375-.566406zm-104 72c.050781-29.941406 18.609375-56.730469 46.625-67.296875l33.375 45.898437v77.398438h-48v-72h-16v72h-16zm176 56h-16v-72h-16v72h-48v-77.398438l33.375-45.898437c28.015625 10.566406 46.574219 37.355469 46.625 67.296875zm0 0"/>
  <path d="m408 184h16v16h-16zm0 0"/>
  <path
    d="m378.34375 314.34375-33.9375 33.9375 11.3125 11.3125 20.28125-20.28125v60.6875c0 13.253906-10.746094 24-24 24h-128v16h128c22.082031-.027344 39.972656-17.917969 40-40v-60.6875l20.28125 20.28125 11.3125-11.3125-33.9375-33.9375c-3.125-3.121094-8.1875-3.121094-11.3125 0zm0 0"/>
  <path
    d="m104 168c2.121094 0 4.15625-.84375 5.65625-2.34375l33.945312-33.9375-11.3125-11.3125-20.289062 20.28125v-60.6875c0-13.253906 10.746094-24 24-24h144v-16h-144c-22.082031.027344-39.972656 17.917969-40 40v60.6875l-20.289062-20.28125-11.3125 11.3125 33.945312 33.9375c1.5 1.5 3.535156 2.34375 5.65625 2.34375zm0 0"/>
</svg>
